HIERARCHY
ROOT Hips
{
	OFFSET 0.00000 0.00000 0.00000
	CHANNELS 6 Xposition Yposition Zposition Zrotation Yrotation Xrotation 
	JOINT LHipJoint
	{
		OFFSET 0 0 0
		CHANNELS 3 Zrotation Yrotation Xrotation
		JOINT LeftUpLeg
		{
			OFFSET 1.66553 -1.82942 0.76350
			CHANNELS 3 Zrotation Yrotation Xrotation
			JOINT LeftLeg
			{
				OFFSET 2.41740 -6.64177 0.00000
				CHANNELS 3 Zrotation Yrotation Xrotation
				JOINT LeftFoot
				{
					OFFSET 2.71614 -7.46254 0.00000
					CHANNELS 3 Zrotation Yrotation Xrotation
					JOINT LeftToeBase
					{
						OFFSET 0.08005 -0.21993 1.82495
						CHANNELS 3 Zrotation Yrotation Xrotation
						End Site
						{
							OFFSET 0.00000 -0.00000 0.93441
						}
					}
				}
			}
		}
	}
	JOINT RHipJoint
	{
		OFFSET 0 0 0
		CHANNELS 3 Zrotation Yrotation Xrotation
		JOINT RightUpLeg
		{
			OFFSET -1.63725 -1.82942 0.76350
			CHANNELS 3 Zrotation Yrotation Xrotation
			JOINT RightLeg
			{
				OFFSET -2.40538 -6.60872 0.00000
				CHANNELS 3 Zrotation Yrotation Xrotation
				JOINT RightFoot
				{
					OFFSET -2.73312 -7.50919 0.00000
					CHANNELS 3 Zrotation Yrotation Xrotation
					JOINT RightToeBase
					{
						OFFSET -0.15567 -0.42769 1.93504
						CHANNELS 3 Zrotation Yrotation Xrotation
						End Site
						{
							OFFSET -0.00000 -0.00000 1.00100
						}
					}
				}
			}
		}
	}
	JOINT LowerBack
	{
		OFFSET 0 0 0
		CHANNELS 3 Zrotation Yrotation Xrotation
		JOINT Spine
		{
			OFFSET 0.00326 2.30118 -0.13017
			CHANNELS 3 Zrotation Yrotation Xrotation
			JOINT Spine1
			{
				OFFSET 0.02887 2.30677 0.00834
				CHANNELS 3 Zrotation Yrotation Xrotation
				JOINT Neck
				{
					OFFSET 0 0 0
					CHANNELS 3 Zrotation Yrotation Xrotation
					JOINT Neck1
					{
						OFFSET 0.12946 1.68326 0.00713
						CHANNELS 3 Zrotation Yrotation Xrotation
						JOINT Head
						{
							OFFSET -0.24364 1.67243 -0.16079
							CHANNELS 3 Zrotation Yrotation Xrotation
							End Site
							{
								OFFSET -0.09229 1.70819 -0.06383
							}
						}
					}
				}
				JOINT LeftShoulder
				{
					OFFSET 0 0 0
					CHANNELS 3 Zrotation Yrotation Xrotation
					JOINT LeftArm
					{
						OFFSET 3.28104 0.69567 -0.00556
						CHANNELS 3 Zrotation Yrotation Xrotation
						JOINT LeftForeArm
						{
							OFFSET 5.70706 -0.00000 -0.00000
							CHANNELS 3 Zrotation Yrotation Xrotation
							JOINT LeftHand
							{
								OFFSET 3.33243 -0.00000 0.00000
								CHANNELS 3 Zrotation Yrotation Xrotation
								JOINT LeftFingerBase
								{
									OFFSET 0 0 0
									CHANNELS 3 Zrotation Yrotation Xrotation
									JOINT LeftHandIndex1
									{
										OFFSET 0.79269 -0.00000 0.00000
										CHANNELS 3 Zrotation Yrotation Xrotation
										End Site
										{
											OFFSET 0.63909 -0.00000 0.00000
										}
									}
								}
								JOINT LThumb
								{
									OFFSET 0 0 0
									CHANNELS 3 Zrotation Yrotation Xrotation
									End Site
									{
										OFFSET 0.64884 -0.00000 0.64884
									}
								}
							}
						}
					}
				}
				JOINT RightShoulder
				{
					OFFSET 0 0 0
					CHANNELS 3 Zrotation Yrotation Xrotation
					JOINT RightArm
					{
						OFFSET -3.40955 0.64424 0.14010
						CHANNELS 3 Zrotation Yrotation Xrotation
						JOINT RightForeArm
						{
							OFFSET -5.88176 -0.00000 -0.00000
							CHANNELS 3 Zrotation Yrotation Xrotation
							JOINT RightHand
							{
								OFFSET -3.28156 -0.00000 0.00000
								CHANNELS 3 Zrotation Yrotation Xrotation
								JOINT RightFingerBase
								{
									OFFSET 0 0 0
									CHANNELS 3 Zrotation Yrotation Xrotation
									JOINT RightHandIndex1
									{
										OFFSET -0.86313 -0.00000 0.00000
										CHANNELS 3 Zrotation Yrotation Xrotation
										End Site
										{
											OFFSET -0.69587 -0.00000 0.00000
										}
									}
								}
								JOINT RThumb
								{
									OFFSET 0 0 0
									CHANNELS 3 Zrotation Yrotation Xrotation
									End Site
									{
										OFFSET -0.70650 -0.00000 0.70650
									}
								}
							}
						}
					}
				}
			}
		}
	}
}
MOTION
Frames: 15
Frame Time: 0.00623053
0.00 0.00 0.00 0 0 0 0 0 0 -21 0 0 0 0 0 0 0 0 0 0 0 0 0 0 21 0 0 0 0 0 0 0 0 0 0 0 0 0 0 0 0 0 0 0 0 0 0 -16 0 0 21 0 0 11 0 0 0 -8 0 0 0 0 0 0 0 0 0 0 0 0 0 0 0 0 0 0 0 0 8 0 0 0 0 0 0 0 0 0 0 0 0 0 0 0 0 0
0.00 0.00 0.00 -2.5933 21.8151 16.2914 0.0000 0.0000 0.0000 18.1229 -5.2451 -70.0722 10.4524 17.6565 60.9901 0.3437 -7.4409 -10.9248 6.3571 -14.7657 -46.3988 0.0000 0.0000 0.0000 -3.1471 -11.0689 -46.2384 -14.5634 -19.2761 73.9179 -4.2725 -0.4208 -39.4327 -2.6369 10.0826 -29.2447 1.0255 1.3551 27.7914 -1.6879 2.0285 9.5008 -3.0700 1.0929 -4.6276 15.7277 7.6697 6.3762 -23.7989 8.4621 -24.6141 -11.4562 5.2432 -6.3659 -0.0000 0.0000 0.0000 -76.5086 19.5241 11.8949 82.2301 -59.7706 -53.2762 -0.0000 0.0000 -23.8618 0.7955 24.3835 0.3284 -7.1250 0.0000 -0.0000 -28.8786 51.9491 -5.3079 -0.0000 0.0000 0.0000 74.7927 -6.1569 23.7339 -124.1164 55.1093 -89.0605 0.0000 -0.0000 -53.3124 -29.5407 12.5909 -7.0424 7.1250 -0.0000 -0.0000 -1.5580 -15.5846 -1.0826
0.00 0.00 0.00 -3.7187 22.3501 17.3593 0.0000 0.0000 0.0000 18.4771 -3.7456 -72.6055 11.2860 18.0722 63.7068 0.5582 -4.1662 -13.3106 6.3572 -14.7658 -46.3989 0.0000 0.0000 0.0000 -2.1416 -11.8664 -46.3719 -14.1729 -19.1656 72.7318 -4.2750 -0.4376 -39.4495 -2.7577 10.2920 -29.9276 0.9826 1.1618 28.2287 -1.9720 1.7745 10.1585 -3.2801 0.9949 -4.1034 15.1237 7.7838 6.2976 -23.2601 8.5063 -26.0654 -11.2938 5.2927 -6.8794 0.0000 -0.0000 0.0000 -78.6340 19.9722 14.0401 53.9572 -54.4720 -29.3655 -0.0000 0.0000 -18.5745 -8.5208 25.4177 -3.6794 -7.1250 0.0000 -0.0000 -37.9084 51.2672 -6.6678 0.0000 -0.0000 0.0000 78.5130 -12.0877 29.1015 -109.2982 58.5450 -76.6311 0.0000 -0.0000 -56.1381 -34.2078 8.8792 -5.9900 7.1250 -0.0000 -0.0000 -5.1872 -19.3059 -3.1936
0.00 0.00 0.00 -4.2542 22.4627 17.6452 0.0000 0.0000 0.0000 17.9385 -2.5845 -73.5510 11.8367 18.3207 65.4701 0.6376 -5.0745 -14.2194 5.9291 -14.3593 -44.6967 0.0000 0.0000 0.0000 -1.7922 -11.9172 -44.9255 -13.5107 -18.9589 70.7043 -4.1500 -1.6419 -39.2328 -2.9833 10.6679 -31.1679 0.0269 1.2372 28.4991 -2.3954 1.6209 10.7990 -3.1444 0.9307 -3.5340 14.6208 8.0158 5.1740 -22.1909 8.8314 -26.3048 -10.7414 5.3611 -6.7946 0.0000 0.0000 0.0000 -79.4299 20.3770 12.5712 40.3658 -48.2851 -18.7119 -0.0000 0.0000 -15.5181 -16.8563 27.8815 -8.0647 -7.1250 0.0000 -0.0000 -46.8668 51.7507 -9.5457 0.0000 0.0000 0.0000 79.2938 -15.1227 32.7032 -93.4433 59.9552 -62.9815 0.0000 -0.0000 -57.0889 -35.1096 11.1159 -7.7192 7.1250 -0.0000 -0.0000 -5.5423 -16.5151 -3.7559
0.00 0.00 0.00 -5.2308 22.9991 18.2084 0.0000 0.0000 0.0000 18.0529 -1.8655 -74.8042 12.3765 18.5453 67.1775 0.6890 -5.6871 -14.7897 5.7068 -14.1381 -43.7933 0.0000 0.0000 0.0000 -1.0094 -11.9749 -43.3009 -12.6779 -18.6628 68.1220 -4.1079 -1.5298 -38.9980 -2.5778 9.9780 -28.9055 0.4697 1.1547 27.6352 -3.2473 1.5837 10.6857 -4.3000 0.9456 -3.2158 15.4381 7.2808 7.5339 -20.8893 8.3736 -27.6111 -10.7378 4.9841 -7.8274 -0.0000 0.0000 0.0000 -78.2084 21.7074 8.7853 31.1454 -41.8551 -12.1667 -0.0000 0.0000 -11.3861 -26.1051 28.5144 -13.1658 -7.1250 0.0000 -0.0000 -54.6305 50.5757 -10.1651 -0.0000 0.0000 0.0000 79.1605 -18.8353 35.7422 -74.5184 59.0747 -46.6342 0.0000 -0.0000 -52.2265 -31.9740 12.5383 -7.7175 7.1250 -0.0000 -0.0000 -3.2269 -15.3051 -2.2644
0.00 0.00 0.00 -7.5401 25.0663 18.6888 0.0000 0.0000 0.0000 15.6363 -0.6675 -74.5579 13.4151 18.9269 70.4099 0.8887 -7.8215 -16.8924 5.9391 -14.3691 -44.7368 0.0000 0.0000 0.0000 1.4239 -10.5883 -30.9649 -7.9828 -16.1066 52.5009 -3.1313 -7.4171 -36.6017 -2.1396 9.1510 -26.2690 1.1183 2.6420 24.0766 -5.1584 3.5818 10.4105 -7.1307 2.0327 -1.4632 16.2290 5.2036 8.7145 -16.8338 6.6740 -26.5560 -9.3484 3.6429 -8.3169 -0.0000 -0.0000 0.0000 -64.1298 23.3221 -10.0458 19.7378 -30.3251 -5.3983 -0.0000 0.0000 -7.8502 -32.3166 33.8813 -19.4250 -7.1250 0.0000 -0.0000 -64.5209 52.8794 -18.6187 -0.0000 -0.0000 0.0000 75.6176 -27.5731 33.0000 -31.0025 41.7373 -12.0715 0.0000 -0.0000 -30.7770 -0.1170 24.2484 -0.0480 7.1250 -0.0000 -0.0000 17.8397 -6.6620 16.4904
0.00 0.00 0.00 -7.9962 26.9078 17.4226 0.0000 0.0000 0.0000 12.2364 -1.4066 -69.8701 13.2985 18.8873 70.0500 1.2490 -9.9542 -20.1392 5.5379 -13.9651 -43.0978 0.0000 0.0000 0.0000 2.7753 -7.6446 -19.9963 -5.5138 -13.9400 42.9976 -1.0438 -14.6673 -29.5343 -0.1826 2.7521 -7.5893 1.3320 2.9076 21.3671 -5.0401 3.9786 9.3299 -7.0539 2.2077 -1.2628 15.0578 4.6091 9.3318 -14.4466 6.3123 -22.3269 -7.9714 3.3601 -7.2881 0.0000 -0.0000 0.0000 -47.8631 21.3710 -21.6940 15.8627 -25.3341 -3.5870 -0.0000 0.0000 -14.2266 -22.5926 36.0767 -13.7681 -7.1250 0.0000 -0.0000 -59.6590 56.2085 -21.6717 0.0000 -0.0000 0.0000 63.5113 -30.8303 35.8328 -16.6012 26.3291 -3.9088 0.0000 0.0000 1.6208 17.4085 28.7551 8.5776 7.1250 -0.0000 -0.0000 27.0909 -2.5600 29.4138
0.00 0.00 0.00 -7.4533 26.9448 15.2939 0.0000 0.0000 0.0000 7.3468 -2.9722 -59.9646 12.0403 18.4076 66.1165 1.5130 -11.2608 -22.2376 3.9464 -12.0888 -36.0467 0.0000 0.0000 0.0000 3.8856 -5.5355 -19.2835 -6.5200 -14.9140 47.0347 0.1242 -14.4644 -19.1141 -0.0016 -0.2561 0.7037 1.5485 2.1591 18.9136 -4.6710 3.0459 8.2405 -6.4612 1.7047 -1.3405 15.6215 4.8328 8.9153 -15.0372 6.6180 -19.4445 -8.0650 3.5312 -6.1904 0.0000 0.0000 0.0000 -29.2619 17.4951 -23.8642 15.0922 -24.2744 -3.2638 -0.0000 0.0000 -15.4083 10.8314 35.8880 6.3994 -7.1250 0.0000 -0.0000 -28.6078 64.1375 -13.8085 0.0000 0.0000 0.0000 43.6182 -27.2167 32.8480 -9.5248 15.9929 -1.3410 0.0000 0.0000 41.6650 32.0759 29.6079 17.2044 7.1250 -0.0000 -0.0000 33.5702 0.2929 41.7721
0.00 0.00 0.00 -4.2474 19.0936 9.9044 0.0000 0.0000 0.0000 -3.2251 -0.2290 -36.9316 8.8514 16.7112 55.5749 1.1877 -4.3096 -19.6228 4.6163 -12.9382 -39.1376 0.0000 0.0000 0.0000 8.3962 -0.6446 -30.2056 -8.3894 -16.3983 53.9534 -1.3872 -1.8432 -22.9855 -0.2409 3.1584 -8.7201 0.8551 -0.4228 15.3342 -3.5903 -0.4455 7.2314 -4.1852 -0.1093 -0.9677 14.6508 8.7820 10.0706 -19.6118 11.8253 -12.3754 -9.0583 6.5500 -3.1118 0.0000 -0.0000 0.0000 -13.1843 13.4671 -14.1655 27.4127 -38.5699 -9.7553 -0.0000 0.0000 -20.5719 25.0002 31.2586 13.6024 -7.1250 0.0000 -0.0000 -8.2931 63.6085 -3.7554 0.0000 -0.0000 0.0000 7.7933 -4.0554 35.6820 -17.1915 27.1095 -4.1742 0.0000 0.0000 25.6524 5.0087 22.8401 1.9484 7.1250 -0.0000 -0.0000 20.9308 -8.2047 19.0856
0.00 0.00 0.00 -2.3117 13.5044 7.6741 0.0000 0.0000 0.0000 -5.6350 1.5248 -32.0891 9.7374 17.2595 58.6071 0.0750 -5.7087 -5.9033 2.5890 -9.9979 -28.9699 0.0000 0.0000 0.0000 10.9626 4.8045 -32.7834 -7.1594 -15.4646 49.4745 -1.5318 3.5694 -22.5149 -0.9569 6.2291 -17.4505 0.3094 -0.7296 14.5313 -3.0431 -0.9344 6.9272 -3.2180 -0.3887 -0.8900 14.0396 10.6713 10.1716 -21.9259 14.4396 -9.5918 -9.4591 7.9807 -1.7069 -0.0000 0.0000 0.0000 -9.8022 11.3328 -6.9629 38.6083 -47.2234 -17.4107 -0.0000 0.0000 -25.5801 14.2270 30.5110 7.3350 -7.1250 0.0000 -0.0000 -19.8787 60.1660 -7.5314 -0.0000 0.0000 0.0000 -2.4872 5.5299 32.4181 -27.7870 38.9194 -9.9896 0.0000 0.0000 15.5263 -8.6332 21.5407 -3.1907 7.1250 -0.0000 -0.0000 12.6875 -8.6385 10.9163
0.00 0.00 0.00 -0.4755 8.9993 5.2280 0.0000 0.0000 0.0000 -5.8538 2.1928 -30.4036 11.7011 18.2614 65.0383 0.0572 -5.7821 9.7171 0.0887 -1.9209 -5.2872 0.0000 0.0000 0.0000 13.5417 7.9661 -32.6341 -5.7047 -14.1359 43.7847 -0.9818 9.7224 -17.9467 -0.4273 4.1951 -11.6262 1.3161 -1.0044 13.7677 -3.0439 -1.1922 6.7279 -3.7559 -0.5052 -0.7255 15.2194 11.5437 10.8355 -24.2376 16.0152 -7.8264 -10.2540 8.8486 -0.7005 0.0000 0.0000 0.0000 -5.0458 8.5067 0.4899 54.0871 -54.5165 -29.4712 -0.0000 0.0000 -28.3972 14.6439 29.9671 7.4362 -7.1250 0.0000 -0.0000 -19.0271 59.7528 -7.0057 0.0000 0.0000 0.0000 -7.0397 11.8756 22.0327 -45.6028 51.0604 -22.7067 0.0000 0.0000 13.1015 -7.9194 22.8634 -3.0937 7.1250 -0.0000 -0.0000 13.1382 -7.4086 11.6530
0.00 0.00 0.00 2.6783 6.0752 2.7319 0.0000 0.0000 0.0000 -6.4243 2.0473 -28.6512 13.0926 18.8153 69.4129 0.3269 -2.4811 12.0000 0.0405 -1.2988 -3.5712 0.0000 0.0000 0.0000 12.9316 10.2465 -29.4409 -5.7830 -14.2147 44.1045 -0.8010 4.5560 -15.9890 -0.0767 -1.7868 4.9168 0.9814 -1.1801 12.6791 -3.0087 -1.4796 6.4001 -3.4971 -0.6638 -0.5012 16.0997 11.7301 12.1160 -26.1351 16.6313 -7.0975 -11.0548 9.2857 -0.3180 0.0000 0.0000 0.0000 -0.8628 5.7387 5.5013 75.9150 -59.2370 -47.8333 -0.0000 0.0000 -24.8138 17.2747 27.0531 8.0505 -7.1250 0.0000 -0.0000 -14.3474 57.5382 -4.4662 0.0000 0.0000 0.0000 -11.6579 17.0155 15.2492 -70.1581 58.4589 -42.9054 0.0000 0.0000 10.3868 -10.9695 23.7260 -4.4594 7.1250 -0.0000 -0.0000 11.2741 -6.2482 10.1841
0.00 0.00 0.00 4.9910 5.1323 0.5743 0.0000 0.0000 0.0000 -6.5725 1.7614 -26.8669 13.2624 18.8749 69.9386 0.1379 -0.5657 7.2429 0.6717 -5.2410 -14.5973 0.0000 0.0000 0.0000 10.3050 9.8684 -25.6358 -6.4426 -14.8440 46.7334 -1.3772 3.4889 -21.3172 -0.0026 0.3306 -0.9083 0.7016 -1.3901 12.6271 -2.8273 -1.7957 6.0918 -3.1032 -0.8381 -0.8054 16.3998 11.9845 12.1102 -26.9436 17.2412 -5.9619 -11.2729 9.5927 0.2446 0.0000 0.0000 0.0000 0.9287 4.1480 6.8980 93.0227 -59.9654 -62.6174 -0.0000 0.0000 -21.8346 19.5855 24.2719 8.3210 -7.1250 0.0000 -0.0000 -10.5274 55.2469 -2.6701 0.0000 0.0000 0.0000 -13.7237 20.0167 10.6487 -89.5644 59.9993 -59.6228 0.0000 0.0000 10.8171 -13.2291 25.5408 -5.7876 7.1250 -0.0000 -0.0000 9.9722 -4.1709 9.3662
0.00 0.00 0.00 5.9529 3.5946 -1.1377 0.0000 0.0000 0.0000 -4.9801 2.0307 -25.5712 12.7232 18.6799 68.2636 0.0037 0.2698 1.0910 1.4803 -7.6874 -21.7685 0.0000 0.0000 0.0000 8.4514 8.2453 -23.6264 -7.1217 -15.4335 49.3330 -1.9534 3.5597 -25.5536 -0.3077 3.5663 -9.8595 1.3566 -1.3537 12.7596 -2.0303 -1.6745 5.2652 -2.6442 -0.7961 -1.7292 16.5435 12.2657 12.2498 -27.8030 17.8769 -5.0500 -11.5071 9.9311 0.7235 -0.0000 0.0000 0.0000 1.4619 3.7150 6.6851 110.0527 -58.4247 -77.2743 -0.0000 0.0000 -21.0242 19.7150 21.8969 7.6120 -7.1250 0.0000 -0.0000 -9.4250 52.8565 -1.8350 -0.0000 0.0000 0.0000 -14.3508 23.2135 6.1021 -108.3079 58.6948 -75.7856 0.0000 0.0000 10.9353 -11.4281 25.7688 -5.0223 7.1250 -0.0000 -0.0000 11.0716 -4.1734 10.4370
0.00 0.00 0.00 5.4982 1.4943 -1.8171 0.0000 0.0000 0.0000 -2.2488 1.3631 -24.6107 11.3460 18.1003 63.9001 0.0909 -0.4737 -5.5454 1.4011 -7.4878 -21.1687 0.0000 0.0000 0.0000 7.4635 7.5428 -23.1750 -7.9039 -16.0481 52.2159 -2.2831 5.1226 -27.4552 -0.5321 4.6742 -12.9817 2.6422 -1.2224 12.2359 -0.3184 -1.3159 4.5385 -1.6371 -0.6340 -2.1713 16.0203 12.6733 12.8280 -29.3218 18.2892 -6.1136 -12.0071 10.3031 0.5430 -0.0000 -0.0000 0.0000 0.4751 4.0073 4.0914 123.5685 -55.2815 -88.6106 -0.0000 0.0000 -24.1577 17.3350 19.0438 5.8153 -7.1250 0.0000 -0.0000 -10.7512 49.5554 -1.2202 -0.0000 -0.0000 0.0000 -13.9932 25.6450 2.7502 -123.9052 55.1762 -88.8872 0.0000 0.0000 10.2064 -13.2678 24.7142 -5.6303 7.1250 -0.0000 -0.0000 9.9049 -4.9904 9.1464
